<svg width="255" height="255" viewBox="0 0 255 255" fill="none" xmlns="http://www.w3.org/2000/svg">
<g clip-path="url(#clip0_448_25173)">
<path d="M127.48 254.962C197.886 254.962 254.961 197.886 254.961 127.481C254.961 57.0751 197.886 0 127.48 0C57.0747 0 -0.000366211 57.0751 -0.000366211 127.481C-0.000366211 197.886 57.0747 254.962 127.48 254.962Z" fill="url(#paint0_linear_448_25173)"/>
<mask id="mask0_448_25173" style="mask-type:luminance" maskUnits="userSpaceOnUse" x="0" y="-1" width="255" height="256">
<path d="M127.481 254.961C197.887 254.961 254.962 197.886 254.962 127.481C254.962 57.0748 197.887 -0.000244141 127.481 -0.000244141C57.0757 -0.000244141 0.000610352 57.0748 0.000610352 127.481C0.000610352 197.886 57.0757 254.961 127.481 254.961Z" fill="white"/>
</mask>
<g mask="url(#mask0_448_25173)">
<path fill-rule="evenodd" clip-rule="evenodd" d="M113.533 160.215C106.771 159.677 98.8564 158.255 90.327 155.643L83.2191 173.585L99.1638 183.959C101.277 185.573 104.389 184.42 108.654 180.386L112.304 183.498C104.85 191.643 97.3964 199.904 89.9812 208.049C80.107 199.174 69.0802 190.337 57.477 190.375C45.0286 190.452 33.0797 203.131 45.6818 224.993C45.7586 225.377 43.7992 227.951 42.6465 226.76C32.8492 219.153 29.1223 197.06 36.7297 184.535C41.6092 176.621 51.4065 168.821 66.8902 170.55L73.3449 153.222C67.8891 151.109 61.2039 153.299 53.4428 159.984C56.017 146.114 64.6617 136.855 81.9512 134.319L99.6632 91.5565C90.4038 87.5223 81.567 92.4018 77.2638 100.432C74.5359 100.201 72.6917 99.3176 72.1923 97.3965L90.4038 63.5092C99.0101 60.5508 106.656 60.4739 113.456 62.6639C141.043 71.4623 155.527 118.451 176.352 170.243C178.08 174.738 180.616 175.199 186.379 169.244L190.606 172.74L153.376 210.124L136.278 158.64C136.278 159.37 127.326 161.367 113.495 160.215H113.533ZM113.533 140.082C118.989 140.735 124.791 140.812 129.478 139.66C127.326 130.554 118.221 109.461 113.533 103.429C112.995 102.737 112.534 102.276 112.15 101.969L97.6269 137.239C97.6269 137.239 105.004 139.16 113.572 140.082H113.533Z" fill="white"/>
<path fill-rule="evenodd" clip-rule="evenodd" d="M229.527 87.2919V91.4797C205.975 94.9376 196.985 103.928 193.527 127.48H189.339C185.881 103.967 176.891 94.9376 153.377 91.4797V87.2919C176.891 83.834 185.881 74.8435 189.339 51.3298H193.527C196.985 74.8435 206.014 83.834 229.527 87.2919Z" fill="white"/>
<path fill-rule="evenodd" clip-rule="evenodd" d="M177.198 46.95V49.2168C164.481 51.0994 159.64 55.9405 157.757 68.6578H155.49C153.607 55.9405 148.766 51.0994 136.088 49.2168V46.95C148.805 45.0673 153.646 40.2263 155.49 27.5474H157.757C159.64 40.2647 164.481 45.1057 177.198 46.95Z" fill="white"/>
</g>
</g>
<defs>
<linearGradient id="paint0_linear_448_25173" x1="212.813" y1="42.1478" x2="29.968" y2="224.993" gradientUnits="userSpaceOnUse">
<stop stop-color="#218FFF"/>
<stop offset="1" stop-color="#FF1150"/>
</linearGradient>
<clipPath id="clip0_448_25173">
<rect width="255" height="255" fill="white"/>
</clipPath>
</defs>
</svg>
