<svg width="253" height="82" viewBox="0 0 253 82" fill="none" xmlns="http://www.w3.org/2000/svg">
<g clip-path="url(#clip0_45_1648)">
<path fill-rule="evenodd" clip-rule="evenodd" d="M54.8945 39.3011L62.5691 32.8392C63.6959 32.642 69.132 32.7633 71.0811 37.8601C71.7359 38.664 76.4106 33.0819 78.5577 32.733C79.989 32.3993 84.9379 32.5661 88.4706 38.4213L94.9727 33.628C101.459 31.3678 106.271 36.5252 106.347 39.1949C106.408 41.8191 106.347 53.4536 106.408 54.0149C106.454 54.5609 106.332 57.7616 109.317 55.3042C109.591 55.4104 110.337 55.9413 110.367 56.5177L101.292 64.7847L92.5515 57.9436C94.8356 57.2913 95.2468 55.6986 95.2772 53.1351V42.35C95.1402 39.7258 90.4958 37.3898 88.7752 42.0012V53.5143C88.7752 57.3217 90.3893 55.5924 91.379 55.5317C92.0643 55.7593 92.0947 56.4115 92.2774 56.9576L83.4 64.3903L75.0859 57.5492C76.1822 57.2155 77.2025 56.2143 77.309 53.7115V41.7129C77.309 39.2556 72.0861 38.4061 71.2638 42.0315V53.7722C71.2638 55.6834 72.3906 56.1537 73.8677 55.3801C74.2788 55.7896 74.5834 56.2295 74.7509 56.6391L65.9343 64.3297L56.8741 56.4115C57.6202 56.2599 59.9804 56.3964 59.9804 53.1047V41.5158C59.7825 39.4831 58.4425 39.2556 56.2954 40.4843C55.9148 40.2871 55.3361 40.105 54.8945 39.3011Z" fill="#EC1C24"/>
<path fill-rule="evenodd" clip-rule="evenodd" d="M110.61 39.7561L118.955 32.8543C119.747 32.2172 125.624 34.4471 126.294 38.5275V53.3474C126.294 59.3391 134.334 57.6705 134.395 53.3171L134.426 42.5624C134.426 42.5624 133.786 38.7247 130.436 41.3944C129.523 41.1213 129.203 40.6511 129.02 40.3174L136.299 33.1274C137.882 33.006 145.283 34.356 145.283 39.9382V53.0137C145.283 53.0137 146.273 58.0801 149.348 54.9856C150.475 54.9553 150.551 56.2447 150.551 56.2447L141.537 65.0274L133.878 58.3986L123.599 64.8909C120.143 62.479 116.184 59.1874 113.245 57.6402C114.265 57.2306 115.742 57.9132 115.742 54.1665L115.772 43.5332C115.772 43.5332 115.909 38.5123 112.011 41.1062C111.052 41.2123 110.945 40.4084 110.61 39.741V39.7561Z" fill="#EC1C24"/>
<path fill-rule="evenodd" clip-rule="evenodd" d="M148.694 25.6037L158.013 16.5479C160.51 15.6529 167.073 19.6423 167.073 23.4345L167.104 53.3778C167.104 53.3778 166.891 57.5644 170.362 55.4862C170.743 55.6986 171.063 56.2599 171.185 56.8514L161.409 64.8151L152.76 57.534C153.506 57.3217 155.47 58.0498 155.47 53.2109V28.0458C155.47 26.9537 154.572 22.9794 150.064 26.9537C149.044 26.8172 148.709 26.0435 148.679 25.6037H148.694Z" fill="#EC1C24"/>
<path fill-rule="evenodd" clip-rule="evenodd" d="M28.582 46.6732C26.1913 46.4911 23.3895 45.9906 20.3745 45.0653L17.862 51.3755L23.4961 55.0312C24.2422 55.6076 25.3386 55.198 26.8461 53.7722L28.1404 54.8643C25.5061 57.7312 22.8717 60.6437 20.2527 63.5106C16.7656 60.3858 12.8674 57.2762 8.77131 57.2913C4.37063 57.3217 0.152682 61.7813 4.59904 69.4719C4.62949 69.6084 3.94427 70.5034 3.53313 70.0938C0.0613189 67.4241 -1.26345 59.6425 1.43177 55.2435C3.16768 52.4525 6.62426 49.7221 12.0908 50.3288L14.3749 44.231C12.4563 43.4877 10.0961 44.2613 7.33995 46.6125C8.23835 41.7433 11.299 38.4668 17.4204 37.587L23.694 22.5396C20.4202 21.1137 17.2986 22.8429 15.7758 25.6643C14.8165 25.5733 14.1465 25.2699 13.9943 24.6025L20.4202 12.6343C23.4656 11.6028 26.1608 11.5725 28.5667 12.3309C38.3122 15.4254 43.4285 31.9746 50.7985 50.2075C51.4076 51.7851 52.306 51.9519 54.3465 49.8586L55.8387 51.0873L42.6824 64.2538L36.6372 46.1271C36.6372 46.3849 33.4699 47.0827 28.582 46.6732ZM28.582 39.5893C30.5006 39.8168 32.5715 39.8472 34.216 39.4376C33.4547 36.2218 30.2417 28.8043 28.582 26.6806C28.3992 26.4379 28.2317 26.2711 28.0947 26.1649L22.9631 38.5882C22.9631 38.5882 25.567 39.2708 28.5972 39.5893H28.582Z" fill="#EC1C24"/>
</g>
<path d="M218.889 64L215.589 53.92H200.469L197.169 64H187.269L202.329 20.98H213.609L228.789 64H218.889ZM210.489 36.94C210.329 36.34 210.069 35.44 209.709 34.24C209.389 33.04 209.069 31.82 208.749 30.58C208.429 29.3 208.169 28.26 207.969 27.46C207.809 28.38 207.569 29.44 207.249 30.64C206.969 31.84 206.689 33 206.409 34.12C206.129 35.24 205.889 36.18 205.689 36.94L202.629 46.24H213.489L210.489 36.94ZM250.232 64H230.732V58.84L235.952 56.44V28.72L230.732 26.32V21.16H250.232V26.32L245.012 28.72V56.44L250.232 58.84V64Z" fill="#EC1C24"/>
<defs>
<clipPath id="clip0_45_1648">
<rect width="171.2" height="58.4" fill="white" transform="translate(0 11.8)"/>
</clipPath>
</defs>
</svg>
